<svg width="32" height="32" viewBox="0 0 32 32" fill="none" xmlns="http://www.w3.org/2000/svg">
<path d="M12.5625 7.25C16.5703 7.25 19.875 10.0273 19.875 13.4375C19.875 16.8828 16.5703 19.625 12.5625 19.625C11.8945 19.625 11.2617 19.5547 10.6289 19.4141C9.57422 20.082 8.02734 20.75 6.09375 20.75C5.74219 20.75 5.42578 20.5742 5.32031 20.2227C5.17969 19.9062 5.21484 19.5547 5.46094 19.2734C5.49609 19.2734 6.26953 18.4297 6.83203 17.3047C5.84766 16.25 5.25 14.9141 5.25 13.4375C5.25 10.0273 8.51953 7.25 12.5625 7.25ZM11.0156 17.7617C11.543 17.9023 12.0352 17.9375 12.5625 17.9375C15.6562 17.9375 18.1875 15.9336 18.1875 13.4375C18.1875 10.9766 15.6562 8.9375 12.5625 8.9375C9.43359 8.9375 6.9375 10.9766 6.9375 13.4375C6.9375 14.7031 7.53516 15.6172 8.0625 16.1445L8.90625 17.0234L8.34375 18.1133C8.20312 18.3242 8.0625 18.5703 7.92188 18.8164C8.55469 18.6406 9.15234 18.3594 9.75 17.9727L10.3477 17.6211L11.0156 17.7617ZM20.7539 11.7852C24.6562 11.9258 27.75 14.6328 27.75 17.9375C27.75 19.4141 27.1172 20.75 26.1328 21.8047C26.6953 22.9297 27.4688 23.7734 27.5039 23.7734C27.75 24.0547 27.7852 24.4062 27.6445 24.7227C27.5391 25.0742 27.2227 25.25 26.8711 25.25C24.9375 25.25 23.3906 24.582 22.3359 23.9141C21.7031 24.0547 21.0703 24.125 20.4375 24.125C17.5547 24.125 15.0586 22.7188 13.8633 20.6797C14.4609 20.6094 15.0586 20.4688 15.5859 20.2578C16.5703 21.5938 18.3633 22.4375 20.4375 22.4375C20.9297 22.4375 21.4219 22.4023 21.9492 22.2617L22.6172 22.1211L23.2148 22.4727C23.8125 22.8594 24.4102 23.1406 25.043 23.3164C24.9023 23.0703 24.7617 22.8242 24.6211 22.6133L24.0586 21.5234L24.9023 20.6445C25.4297 20.1172 26.0625 19.2031 26.0625 17.9375C26.0625 15.6172 23.8125 13.7188 20.9648 13.4727L21 13.4375C21 12.875 20.8945 12.3125 20.7539 11.7852Z" fill="#FE734C"/>
</svg>
