<svg width="32" height="32" viewBox="0 0 32 32" fill="none" xmlns="http://www.w3.org/2000/svg">
<path d="M22.9961 7.91797L24.332 9.25391C25.2109 10.1328 25.2109 11.5391 24.332 12.418C21.2734 15.4766 14.7695 21.9805 13.0469 23.7031C12.7305 24.0195 12.3789 24.2305 11.957 24.3008C10.6211 24.6172 7.66797 25.25 7.66797 25.25C7.63281 25.25 7.5625 25.25 7.52734 25.25C7.21094 25.25 6.92969 24.9336 7 24.582L7.94922 20.293C8.05469 19.8711 8.26562 19.4844 8.58203 19.168L19.832 7.91797C20.2539 7.49609 20.8516 7.25 21.4141 7.25C21.9766 7.25 22.5742 7.49609 22.9961 7.91797ZM11.8516 22.5078L20.3945 14L18.25 11.8555L9.77734 20.3633C9.67188 20.4336 9.63672 20.5391 9.60156 20.6445L9.03906 23.2461C9.91797 23.0352 10.9375 22.8242 11.5703 22.6836C11.6758 22.6484 11.7812 22.6133 11.8516 22.5078Z" fill="#FE734C"/>
</svg>
