<svg width="43" height="40" viewBox="0 0 43 40" fill="none" xmlns="http://www.w3.org/2000/svg">
<rect width="42.1795" height="40" rx="8" fill="#FFF1ED"/>
<path d="M21.1362 16.5601L21.1362 29" stroke="#FE734C" stroke-linecap="round" stroke-linejoin="round"/>
<path d="M24.2954 24.9623C23.4114 25.8199 21.2585 25.9444 21.2585 25.9444C21.2585 25.9444 21.2298 23.5434 22.2708 22.6707C23.1901 21.9001 25.3077 22.016 25.3077 22.016C25.3077 22.016 25.1794 24.1047 24.2954 24.9623Z" stroke="#FE734C" stroke-linecap="round" stroke-linejoin="round"/>
<path d="M24.2954 19.7215C23.4114 20.5792 21.2585 20.7036 21.2585 20.7036C21.2585 20.7036 21.2298 18.3026 22.2708 17.43C23.1901 16.6593 25.3077 16.7752 25.3077 16.7752C25.3077 16.7752 25.1794 18.8639 24.2954 19.7215Z" stroke="#FE734C" stroke-linecap="round" stroke-linejoin="round"/>
<path d="M22.5679 13.7822C22.5679 14.995 21.1362 16.56 21.1362 16.56C21.1362 16.56 19.366 14.8819 19.466 13.5507C19.5544 12.3751 21.1362 11.0044 21.1362 11.0044C21.1362 11.0044 22.5679 12.5693 22.5679 13.7822Z" stroke="#FE734C" stroke-linecap="round" stroke-linejoin="round"/>
<path d="M17.8841 24.9618C18.7681 25.8194 20.9211 25.9439 20.9211 25.9439C20.9211 25.9439 20.9498 23.5429 19.9088 22.6702C18.9895 21.8996 16.8718 22.0155 16.8718 22.0155C16.8718 22.0155 17.0001 24.1042 17.8841 24.9618Z" stroke="#FE734C" stroke-linecap="round" stroke-linejoin="round"/>
<path d="M17.8841 19.7215C18.7681 20.5792 20.9211 20.7036 20.9211 20.7036C20.9211 20.7036 20.9498 18.3026 19.9088 17.43C18.9895 16.6593 16.8718 16.7752 16.8718 16.7752C16.8718 16.7752 17.0002 18.8639 17.8841 19.7215Z" stroke="#FE734C" stroke-linecap="round" stroke-linejoin="round"/>
</svg>
