<svg width="43" height="40" viewBox="0 0 43 40" fill="none" xmlns="http://www.w3.org/2000/svg">
<rect width="42.1795" height="40" rx="8" fill="#FFF1ED"/>
<path d="M11.5139 18.6216L14.3924 20.4506V22.5918C14.3924 23.5155 15.1564 24.2669 16.096 24.2669C16.5544 24.2669 16.9814 24.0914 17.2948 23.776C17.6075 23.4685 17.7872 23.0448 17.7925 22.6112L19.2117 23.5164V25.4864C19.2117 26.3715 19.9444 27.0917 20.8447 27.0917C21.2855 27.0917 21.6949 26.924 21.9945 26.6222C22.2788 26.3423 22.4455 25.9771 22.4692 25.5847L24.6258 26.9567C24.6259 26.9568 24.626 26.957 24.6261 26.9571L27.7608 28.9457C27.8173 28.9814 27.8825 29 27.9485 29C27.9728 29 27.9971 28.9975 28.0215 28.9924C28.1111 28.9732 28.1895 28.9199 28.2395 28.8441C29.9174 26.2858 31.0402 23.34 31.4861 20.3245C31.9273 17.2982 31.6991 14.1583 30.8265 11.2445C30.8009 11.1577 30.7407 11.0849 30.6602 11.0417C30.5794 10.9983 30.4837 10.9882 30.3968 11.0141L27.1967 11.9413C27.1965 11.9413 27.1964 11.9413 27.1962 11.9413L11.8429 16.3905C11.3621 16.5311 11.0197 16.9205 10.949 17.4072C10.8787 17.891 11.0954 18.3564 11.5139 18.6216ZM17.7945 21.8012V21.2624C17.7945 20.8766 18.1136 20.5628 18.5058 20.5628C18.6918 20.5628 18.8747 20.6378 19.0045 20.7654C19.138 20.9006 19.2117 21.0771 19.2117 21.2624V22.7051L17.7945 21.8012ZM30.8009 20.2271C30.3857 23.0337 29.3647 25.7787 27.8426 28.1874L25.2687 26.5546C26.4522 24.4047 27.2675 22.0891 27.6847 19.6627C27.6847 19.6625 27.6847 19.6624 27.6847 19.6622C28.0978 17.2372 28.0948 14.833 27.6856 12.5091L30.2576 11.764C31.0233 14.4919 31.2113 17.4105 30.8009 20.2271ZM11.6343 17.5032C11.6667 17.2799 11.8185 17.1079 12.0393 17.0432L27.0214 12.7017C27.4038 14.9256 27.3974 17.2274 27.0018 19.5493C26.6005 21.8845 25.8229 24.1154 24.6893 26.1866L22.4722 24.776V22.4364C22.4722 22.2484 22.3174 22.096 22.126 22.096C21.9346 22.096 21.7798 22.2484 21.7798 22.4364V24.961V25.4864C21.7798 25.734 21.6821 25.9665 21.5019 26.1437C21.3308 26.316 21.0976 26.4109 20.8447 26.4109C20.326 26.4109 19.9041 25.9961 19.9041 25.4864V21.2624C19.9041 20.8987 19.7608 20.5537 19.4974 20.2874C19.2357 20.0298 18.8743 19.8821 18.5058 19.8821C17.7319 19.8821 17.1021 20.5013 17.1021 21.2624V22.5918C17.1021 22.8531 16.9939 23.109 16.8022 23.2973C16.6173 23.4836 16.3664 23.5862 16.096 23.5862C15.5385 23.5862 15.0848 23.1401 15.0848 22.5918V20.2653V19.2201C15.0848 19.0321 14.9299 18.8797 14.7386 18.8797C14.5472 18.8797 14.3924 19.0321 14.3924 19.2201V19.64L11.8895 18.0497C11.6978 17.9282 11.6025 17.724 11.6343 17.5032Z" fill="#FE734C" stroke="#FE734C" stroke-width="0.6"/>
</svg>
