<svg width="43" height="40" viewBox="0 0 43 40" fill="none" xmlns="http://www.w3.org/2000/svg">
<rect width="42.1795" height="40" rx="8" fill="#FFF1ED"/>
<path d="M21.6216 10.895C21.995 10.8503 22.3743 10.9654 22.7847 11.0884L23.0356 11.1626C24.1892 11.4965 25.3726 12.0033 25.9204 12.2495L26.2319 12.3931L26.2349 12.394C26.653 12.6032 26.9248 12.9266 26.9966 13.3364C27.093 13.8868 26.8061 14.4705 26.5093 14.9097C26.2165 15.3428 25.8868 15.6722 25.8013 15.7554L25.8022 15.7563C24.9741 16.6715 24.2007 17.1049 23.4722 16.9155C23.0762 16.8131 22.8021 16.5448 22.6157 16.2563C22.4489 15.9982 22.3476 15.7152 22.2866 15.4956L21.8335 15.3062C21.638 16.011 21.3055 17.2365 21.2134 17.7427C21.126 18.2292 21.0338 19.1265 20.9507 19.9282C20.9195 20.2347 20.8873 20.5173 20.8599 20.7622C21.2406 20.5688 21.6487 20.4358 22.0874 20.3716C23.8111 20.1221 25.4879 20.9385 26.2251 21.3647C27.3968 19.9558 29.0205 19.6517 29.104 19.6372L29.1997 19.6294C29.4208 19.6319 29.6208 19.7742 29.6665 19.9937L29.6763 20.0894C29.6728 20.3075 29.4975 20.4859 29.2788 20.5239L29.2739 20.5249C29.2731 20.5253 28.8774 20.5961 28.3638 20.8433C27.8467 21.0921 27.2183 21.5156 26.7495 22.2144C26.5347 22.5353 26.3657 22.8954 26.2476 23.2837C26.185 23.4912 25.9825 23.6118 25.7808 23.6118C25.7422 23.6118 25.6993 23.6083 25.6558 23.5972V23.5962C25.4091 23.5349 25.2361 23.2933 25.3149 23.0376C25.4135 22.7145 25.5503 22.4142 25.7065 22.1294C25.4133 21.9602 24.9452 21.7153 24.3862 21.5239C23.7388 21.3023 22.9801 21.1541 22.2368 21.2632C21.3887 21.3883 20.6696 21.8391 20.0962 22.6157C20.0892 22.6274 20.0816 22.6418 20.0728 22.6558C20.053 22.6869 20.0244 22.7303 19.9878 22.7827C19.9145 22.8878 19.8077 23.0306 19.6724 23.186C19.4033 23.4951 19.0124 23.8644 18.5317 24.0864H18.5308C18.461 24.1183 18.3874 24.1333 18.3149 24.1333C18.1491 24.1332 17.9763 24.0518 17.8872 23.894V23.8931C17.7555 23.6606 17.8645 23.3864 18.1001 23.2778C18.3738 23.1512 18.6326 22.9284 18.8433 22.7007C19.0531 22.4738 19.2067 22.2521 19.272 22.1421L19.2759 22.1353L19.2798 22.1294C19.4343 21.92 19.6006 21.7367 19.77 21.5669L19.812 21.3228L19.813 21.3188C19.8572 21.0961 19.9193 20.4955 19.9868 19.8433C20.0686 19.0372 20.1641 18.1146 20.2583 17.5923L20.3315 17.2446C20.5439 16.3118 21.0175 14.6396 21.0396 14.561C21.0777 14.4252 21.1816 14.3199 21.3071 14.2661H21.3081C21.4028 14.2264 21.5088 14.2161 21.6099 14.2358L21.7085 14.2651L22.2759 14.5024C22.3473 14.3121 22.4717 14.1631 22.6636 14.0796C22.941 13.9575 23.2362 14.0242 23.4614 14.1196C23.69 14.2165 23.8766 14.3559 23.9595 14.4224H23.9604C24.1661 14.5882 24.1837 14.8811 23.9976 15.0688C23.82 15.248 23.5213 15.2605 23.3257 15.104H23.3247C23.2783 15.0667 23.2214 15.03 23.1655 14.9976C23.1658 15.003 23.1662 15.0085 23.1665 15.0142C23.1885 15.1612 23.2531 15.409 23.3589 15.6294C23.412 15.7399 23.4731 15.838 23.5396 15.9126C23.6064 15.9876 23.6718 16.0314 23.7339 16.0474H23.7349C23.834 16.0736 24.0063 16.039 24.2534 15.8853C24.4928 15.7363 24.7742 15.4933 25.0757 15.1606L25.0815 15.1538H25.0825C25.2385 15.002 25.5067 14.7051 25.7222 14.3774C25.8298 14.2137 25.9215 14.0459 25.98 13.8882C26.0391 13.7286 26.0598 13.5905 26.0405 13.481C26.0209 13.3699 25.9547 13.2774 25.7817 13.1909V13.1899C25.6406 13.1247 24.1451 12.4274 22.7466 12.0229H22.7456L22.4888 11.9468C22.2853 11.8858 22.1327 11.8402 22.0073 11.813C21.8827 11.7859 21.7981 11.7798 21.73 11.7905C21.6018 11.8108 21.4864 11.8954 21.2534 12.1753C21.0501 12.4196 20.6081 12.832 20.2183 13.1821C19.8482 13.5145 19.5144 13.7991 19.4526 13.8521H19.4536L19.3862 13.9194C19.3432 13.9625 19.2812 14.0249 19.2056 14.1011C19.0541 14.2535 18.8471 14.462 18.6274 14.688C18.185 15.1431 17.6979 15.659 17.4907 15.9272C16.8389 16.7726 15.2623 18.9744 14.6235 21.2524C14.5006 21.6913 14.3495 22.6123 14.2271 23.437C14.1661 23.8472 14.1129 24.2308 14.0747 24.5132C14.0556 24.6543 14.0404 24.7706 14.0298 24.8521C14.0245 24.8926 14.02 24.9245 14.0171 24.9468C14.0157 24.958 14.014 24.967 14.0132 24.9731C14.0125 24.9785 14.0123 24.9812 14.0122 24.9819V24.9849C14.0008 25.0689 13.9647 25.1483 13.9067 25.2144C13.825 25.3087 13.6825 25.5088 13.5825 25.7378C13.4803 25.9719 13.4375 26.2037 13.5063 26.3833C13.5924 26.6085 13.8824 26.8147 14.4702 26.9478H14.4712L15.4673 27.1333L15.4751 27.1343L15.4829 27.1372L17.9214 27.8647C18.1261 27.8974 19.683 28.1608 21.4966 28.2554C22.4511 28.3051 23.4619 28.3064 24.355 28.2007C25.2539 28.0942 26.009 27.8816 26.4731 27.522C26.6707 27.3683 26.968 27.3845 27.144 27.5679C27.3295 27.7598 27.3021 28.0542 27.0933 28.2153C26.5983 28.5981 25.9052 28.8389 25.1323 28.9849C24.3571 29.1312 23.4867 29.1851 22.6245 29.1851C20.2256 29.185 17.8562 28.7683 17.688 28.7378L17.6724 28.7339L15.2329 28.0054L14.2681 27.8296L14.2622 27.8286C13.3952 27.634 12.8113 27.2615 12.5923 26.6831C12.4305 26.2578 12.5141 25.824 12.6519 25.478C12.7788 25.159 12.9586 24.8989 13.0649 24.7593C13.1369 24.2049 13.4465 21.8778 13.686 21.0249C14.368 18.5916 16.0261 16.2782 16.7026 15.4009C17.1619 14.8063 18.7009 13.2817 18.7622 13.2202L18.7681 13.2144C18.7766 13.2067 18.8698 13.1266 19.0034 13.0103C19.139 12.8921 19.3206 12.7327 19.5122 12.561C19.8995 12.214 20.316 11.8274 20.4858 11.6235C20.8765 11.1548 21.2341 10.9414 21.6216 10.895Z" fill="#FE734C" stroke="#FE734C" stroke-width="0.3"/>
</svg>
